{
	"asset":{
		"generator":"Khronos glTF Blender I/O v4.1.63",
		"version":"2.0"
	},
	"extensionsUsed":[
		"KHR_materials_specular"
	],
	"scene":0,
	"scenes":[
		{
			"name":"Scene",
			"nodes":[
				0,
				1,
				2,
				3,
				4,
				5,
				6,
				7,
				8
			]
		}
	],
	"nodes":[
		{
			"mesh":0,
			"name":"diamond",
			"rotation":[
				0.7071067690849304,
				0,
				0,
				0.7071068286895752
			],
			"scale":[
				0.2864449620246887,
				0.2864449620246887,
				0.2864449620246887
			],
			"translation":[
				0.0013385170605033636,
				0.0012714496115222573,
				0.0006929931114427745
			]
		},
		{
			"mesh":1,
			"name":"plant",
			"rotation":[
				0.7071067690849304,
				0,
				0,
				0.7071068286895752
			],
			"scale":[
				0.2864449620246887,
				0.2864449620246887,
				0.2864449620246887
			],
			"translation":[
				0.0013385170605033636,
				0.0012714496115222573,
				0.0006929931114427745
			]
		},
		{
			"mesh":2,
			"name":"metal",
			"rotation":[
				0.7071067690849304,
				0,
				0,
				0.7071068286895752
			],
			"scale":[
				0.2864449620246887,
				0.2864449620246887,
				0.2864449620246887
			],
			"translation":[
				0.0013385170605033636,
				0.0012714496115222573,
				0.0006929931114427745
			]
		},
		{
			"mesh":3,
			"name":"glass",
			"rotation":[
				0.7071067690849304,
				0,
				0,
				0.7071068286895752
			],
			"scale":[
				0.2864449620246887,
				0.2864449620246887,
				0.2864449620246887
			],
			"translation":[
				0.0013385170605033636,
				0.0012714496115222573,
				0.0006929931114427745
			]
		},
		{
			"mesh":4,
			"name":"other",
			"rotation":[
				0.7071067690849304,
				0,
				0,
				0.7071068286895752
			],
			"scale":[
				0.2864449620246887,
				0.2864449620246887,
				0.2864449620246887
			],
			"translation":[
				0.0013385170605033636,
				0.0012714496115222573,
				0.0006929931114427745
			]
		},
		{
			"mesh":5,
			"name":"pr",
			"rotation":[
				0.7071067690849304,
				0,
				0,
				0.7071068286895752
			],
			"scale":[
				0.2864449620246887,
				0.2864449620246887,
				0.2864449620246887
			],
			"translation":[
				0.0013385170605033636,
				0.0012714496115222573,
				0.0006929931114427745
			]
		},
		{
			"mesh":6,
			"name":"pr_eyes",
			"rotation":[
				0.7071067690849304,
				0,
				0,
				0.7071068286895752
			],
			"scale":[
				0.2864449620246887,
				0.2864449620246887,
				0.2864449620246887
			],
			"translation":[
				0.0013385170605033636,
				0.0012714496115222573,
				0.0006929931114427745
			]
		},
		{
			"mesh":7,
			"name":"norm",
			"rotation":[
				0.7071067690849304,
				0,
				0,
				0.7071068286895752
			],
			"scale":[
				0.2864449620246887,
				0.2864449620246887,
				0.2864449620246887
			],
			"translation":[
				0.0013385170605033636,
				0.0012714496115222573,
				0.0006929931114427745
			]
		},
		{
			"mesh":8,
			"name":"rails",
			"rotation":[
				0.7071067690849304,
				0,
				0,
				0.7071068286895752
			],
			"scale":[
				0.2864449620246887,
				0.2864449620246887,
				0.2864449620246887
			],
			"translation":[
				0.0013385170605033636,
				0.0012714496115222573,
				0.0006929931114427745
			]
		}
	],
	"materials":[
		{
			"doubleSided":true,
			"extensions":{
				"KHR_materials_specular":{
					"specularColorFactor":[
						2.0,
						2.0,
						2.0
					]
				}
			},
			"name":"diffuse_0",
			"pbrMetallicRoughness":{
				"metallicFactor":0
			}
		},
		{
			"alphaMode":"BLEND",
			"doubleSided":true,
			"extensions":{
				"KHR_materials_specular":{
					"specularColorFactor":[
						2.0,
						2.0,
						2.0
					]
				}
			},
			"name":"Glass",
			"pbrMetallicRoughness":{
				"baseColorFactor":[
					0,
					0,
					0,
					0
				],
				"metallicFactor":0,
				"roughnessFactor":0.49502474069595337
			}
		}
	],
	"meshes":[
		{
			"name":"object_3091",
			"primitives":[
				{
					"attributes":{
						"POSITION":0,
						"NORMAL":1,
						"TEXCOORD_0":2
					},
					"indices":3,
					"material":0
				}
			]
		},
		{
			"name":"object_120",
			"primitives":[
				{
					"attributes":{
						"POSITION":4,
						"NORMAL":5,
						"TEXCOORD_0":6
					},
					"indices":7,
					"material":0
				}
			]
		},
		{
			"name":"object_190",
			"primitives":[
				{
					"attributes":{
						"POSITION":8,
						"NORMAL":9,
						"TEXCOORD_0":10
					},
					"indices":11,
					"material":0
				}
			]
		},
		{
			"name":"object_3063",
			"primitives":[
				{
					"attributes":{
						"POSITION":12,
						"NORMAL":13,
						"TEXCOORD_0":14
					},
					"indices":15,
					"material":1
				}
			]
		},
		{
			"name":"object_420",
			"primitives":[
				{
					"attributes":{
						"POSITION":16,
						"NORMAL":17,
						"TEXCOORD_0":18
					},
					"indices":19,
					"material":0
				}
			]
		},
		{
			"name":"object_3075",
			"primitives":[
				{
					"attributes":{
						"POSITION":20,
						"NORMAL":21,
						"TEXCOORD_0":22
					},
					"indices":23,
					"material":0
				}
			]
		},
		{
			"name":"object_3085",
			"primitives":[
				{
					"attributes":{
						"POSITION":24,
						"NORMAL":25,
						"TEXCOORD_0":26
					},
					"indices":27,
					"material":0
				}
			]
		},
		{
			"name":"object_37",
			"primitives":[
				{
					"attributes":{
						"POSITION":28,
						"NORMAL":29,
						"TEXCOORD_0":30
					},
					"indices":31,
					"material":0
				}
			]
		},
		{
			"name":"object_4619",
			"primitives":[
				{
					"attributes":{
						"POSITION":32,
						"NORMAL":33,
						"TEXCOORD_0":34
					},
					"indices":35,
					"material":0
				}
			]
		}
	],
	"accessors":[
		{
			"bufferView":0,
			"componentType":5126,
			"count":27,
			"max":[
				25.33736228942871,
				143.7970428466797,
				-8.10171127319336
			],
			"min":[
				18.48699951171875,
				136.94667053222656,
				-19.74732780456543
			],
			"type":"VEC3"
		},
		{
			"bufferView":1,
			"componentType":5126,
			"count":27,
			"type":"VEC3"
		},
		{
			"bufferView":2,
			"componentType":5126,
			"count":27,
			"type":"VEC2"
		},
		{
			"bufferView":3,
			"componentType":5123,
			"count":33,
			"type":"SCALAR"
		},
		{
			"bufferView":4,
			"componentType":5126,
			"count":28308,
			"max":[
				29.020923614501953,
				103.87832641601562,
				2.9068682193756104
			],
			"min":[
				-25.548620223999023,
				6.792798042297363,
				-27.754316329956055
			],
			"type":"VEC3"
		},
		{
			"bufferView":5,
			"componentType":5126,
			"count":28308,
			"type":"VEC3"
		},
		{
			"bufferView":6,
			"componentType":5126,
			"count":28308,
			"type":"VEC2"
		},
		{
			"bufferView":7,
			"componentType":5123,
			"count":29829,
			"type":"SCALAR"
		},
		{
			"bufferView":8,
			"componentType":5126,
			"count":5747,
			"max":[
				119.321044921875,
				149.681396484375,
				3.2383508682250977
			],
			"min":[
				-21.889938354492188,
				16.19982147216797,
				-28.798873901367188
			],
			"type":"VEC3"
		},
		{
			"bufferView":9,
			"componentType":5126,
			"count":5747,
			"type":"VEC3"
		},
		{
			"bufferView":10,
			"componentType":5126,
			"count":5747,
			"type":"VEC2"
		},
		{
			"bufferView":11,
			"componentType":5123,
			"count":7818,
			"type":"SCALAR"
		},
		{
			"bufferView":12,
			"componentType":5126,
			"count":18626,
			"max":[
				42.29823303222656,
				2.4124374389648438,
				3.238351345062256
			],
			"min":[
				-2.3918278217315674,
				-13.725137710571289,
				-35.51714324951172
			],
			"type":"VEC3"
		},
		{
			"bufferView":13,
			"componentType":5126,
			"count":18626,
			"type":"VEC3"
		},
		{
			"bufferView":14,
			"componentType":5126,
			"count":18626,
			"type":"VEC2"
		},
		{
			"bufferView":15,
			"componentType":5123,
			"count":27996,
			"type":"SCALAR"
		},
		{
			"bufferView":16,
			"componentType":5126,
			"count":77410,
			"max":[
				112.05426788330078,
				121.73607635498047,
				4.070937633514404
			],
			"min":[
				-25.870737075805664,
				1.890599250793457,
				-25.30596160888672
			],
			"type":"VEC3"
		},
		{
			"bufferView":17,
			"componentType":5126,
			"count":77410,
			"type":"VEC3"
		},
		{
			"bufferView":18,
			"componentType":5126,
			"count":77410,
			"type":"VEC2"
		},
		{
			"bufferView":19,
			"componentType":5125,
			"count":184068,
			"type":"SCALAR"
		},
		{
			"bufferView":20,
			"componentType":5126,
			"count":9497,
			"max":[
				61.93629455566406,
				56.79978561401367,
				-1.3170461654663086
			],
			"min":[
				58.2822380065918,
				53.145729064941406,
				-5.47562313079834
			],
			"type":"VEC3"
		},
		{
			"bufferView":21,
			"componentType":5126,
			"count":9497,
			"type":"VEC3"
		},
		{
			"bufferView":22,
			"componentType":5126,
			"count":9497,
			"type":"VEC2"
		},
		{
			"bufferView":23,
			"componentType":5123,
			"count":11658,
			"type":"SCALAR"
		},
		{
			"bufferView":24,
			"componentType":5126,
			"count":62496,
			"max":[
				61.593955993652344,
				56.48021697998047,
				-1.9216827154159546
			],
			"min":[
				58.50519561767578,
				53.76755142211914,
				-5.106001377105713
			],
			"type":"VEC3"
		},
		{
			"bufferView":25,
			"componentType":5126,
			"count":62496,
			"type":"VEC3"
		},
		{
			"bufferView":26,
			"componentType":5126,
			"count":62496,
			"type":"VEC2"
		},
		{
			"bufferView":27,
			"componentType":5123,
			"count":90720,
			"type":"SCALAR"
		},
		{
			"bufferView":28,
			"componentType":5126,
			"count":228863,
			"max":[
				119.94294738769531,
				157.2303466796875,
				15.466227531433105
			],
			"min":[
				-47.39412307739258,
				-13.725136756896973,
				-39.48957443237305
			],
			"type":"VEC3"
		},
		{
			"bufferView":29,
			"componentType":5126,
			"count":228863,
			"type":"VEC3"
		},
		{
			"bufferView":30,
			"componentType":5126,
			"count":228863,
			"type":"VEC2"
		},
		{
			"bufferView":31,
			"componentType":5125,
			"count":614883,
			"type":"SCALAR"
		},
		{
			"bufferView":32,
			"componentType":5126,
			"count":240342,
			"max":[
				91.98255920410156,
				62.605342864990234,
				3.216285467147827
			],
			"min":[
				-25.870737075805664,
				19.47498321533203,
				-8.155508041381836
			],
			"type":"VEC3"
		},
		{
			"bufferView":33,
			"componentType":5126,
			"count":240342,
			"type":"VEC3"
		},
		{
			"bufferView":34,
			"componentType":5126,
			"count":240342,
			"type":"VEC2"
		},
		{
			"bufferView":35,
			"componentType":5125,
			"count":299571,
			"type":"SCALAR"
		}
	],
	"bufferViews":[
		{
			"buffer":0,
			"byteLength":324,
			"byteOffset":0,
			"target":34962
		},
		{
			"buffer":0,
			"byteLength":324,
			"byteOffset":324,
			"target":34962
		},
		{
			"buffer":0,
			"byteLength":216,
			"byteOffset":648,
			"target":34962
		},
		{
			"buffer":0,
			"byteLength":66,
			"byteOffset":864,
			"target":34963
		},
		{
			"buffer":0,
			"byteLength":339696,
			"byteOffset":932,
			"target":34962
		},
		{
			"buffer":0,
			"byteLength":339696,
			"byteOffset":340628,
			"target":34962
		},
		{
			"buffer":0,
			"byteLength":226464,
			"byteOffset":680324,
			"target":34962
		},
		{
			"buffer":0,
			"byteLength":59658,
			"byteOffset":906788,
			"target":34963
		},
		{
			"buffer":0,
			"byteLength":68964,
			"byteOffset":966448,
			"target":34962
		},
		{
			"buffer":0,
			"byteLength":68964,
			"byteOffset":1035412,
			"target":34962
		},
		{
			"buffer":0,
			"byteLength":45976,
			"byteOffset":1104376,
			"target":34962
		},
		{
			"buffer":0,
			"byteLength":15636,
			"byteOffset":1150352,
			"target":34963
		},
		{
			"buffer":0,
			"byteLength":223512,
			"byteOffset":1165988,
			"target":34962
		},
		{
			"buffer":0,
			"byteLength":223512,
			"byteOffset":1389500,
			"target":34962
		},
		{
			"buffer":0,
			"byteLength":149008,
			"byteOffset":1613012,
			"target":34962
		},
		{
			"buffer":0,
			"byteLength":55992,
			"byteOffset":1762020,
			"target":34963
		},
		{
			"buffer":0,
			"byteLength":928920,
			"byteOffset":1818012,
			"target":34962
		},
		{
			"buffer":0,
			"byteLength":928920,
			"byteOffset":2746932,
			"target":34962
		},
		{
			"buffer":0,
			"byteLength":619280,
			"byteOffset":3675852,
			"target":34962
		},
		{
			"buffer":0,
			"byteLength":736272,
			"byteOffset":4295132,
			"target":34963
		},
		{
			"buffer":0,
			"byteLength":113964,
			"byteOffset":5031404,
			"target":34962
		},
		{
			"buffer":0,
			"byteLength":113964,
			"byteOffset":5145368,
			"target":34962
		},
		{
			"buffer":0,
			"byteLength":75976,
			"byteOffset":5259332,
			"target":34962
		},
		{
			"buffer":0,
			"byteLength":23316,
			"byteOffset":5335308,
			"target":34963
		},
		{
			"buffer":0,
			"byteLength":749952,
			"byteOffset":5358624,
			"target":34962
		},
		{
			"buffer":0,
			"byteLength":749952,
			"byteOffset":6108576,
			"target":34962
		},
		{
			"buffer":0,
			"byteLength":499968,
			"byteOffset":6858528,
			"target":34962
		},
		{
			"buffer":0,
			"byteLength":181440,
			"byteOffset":7358496,
			"target":34963
		},
		{
			"buffer":0,
			"byteLength":2746356,
			"byteOffset":7539936,
			"target":34962
		},
		{
			"buffer":0,
			"byteLength":2746356,
			"byteOffset":10286292,
			"target":34962
		},
		{
			"buffer":0,
			"byteLength":1830904,
			"byteOffset":13032648,
			"target":34962
		},
		{
			"buffer":0,
			"byteLength":2459532,
			"byteOffset":14863552,
			"target":34963
		},
		{
			"buffer":0,
			"byteLength":2884104,
			"byteOffset":17323084,
			"target":34962
		},
		{
			"buffer":0,
			"byteLength":2884104,
			"byteOffset":20207188,
			"target":34962
		},
		{
			"buffer":0,
			"byteLength":1922736,
			"byteOffset":23091292,
			"target":34962
		},
		{
			"buffer":0,
			"byteLength":1198284,
			"byteOffset":25014028,
			"target":34963
		}
	],
	"buffers":[
		{
			"byteLength":26212312,
			"uri":"arena2_unc.bin"
		}
	]
}
